<svg width="894" height="61" viewBox="0 0 894 61" fill="none" xmlns="http://www.w3.org/2000/svg">
<path d="M2 47C3.42344 30.6305 23.0692 21.2225 37.8333 24.1111C76.7194 31.7192 112.984 51.7508 152.889 54.7778C189.71 57.5708 218.635 41.125 246 19" stroke="#1B1C21" stroke-width="3" stroke-linecap="round"/>
<path d="M299 10C292.949 22.8577 287.383 35.8786 282 49" stroke="#1B1C21" stroke-width="3" stroke-linecap="round"/>
<path d="M319 19C316.12 29.5601 310.844 39.3113 306 49" stroke="#1B1C21" stroke-width="3" stroke-linecap="round"/>
<path d="M343 37C343 55.6719 384.325 43.8557 392.889 40.8333C422.065 30.5357 446.18 11.0659 478.444 9.66667C516.163 8.03091 553.952 24.6773 590 34" stroke="#1B1C21" stroke-width="3" stroke-linecap="round"/>
<path d="M630 22C629.362 34.1305 622.548 45.9553 618 57" stroke="#1B1C21" stroke-width="3" stroke-linecap="round"/>
<path d="M650 32C647.36 41.1532 644.136 50.0114 641 59" stroke="#1B1C21" stroke-width="3" stroke-linecap="round"/>
<path d="M668 48C669.771 49.5936 671.573 49.7169 673.889 50.1111C689.453 52.7603 701.823 55.2717 717.889 50.3889C734.073 45.4702 743.018 40.1736 757.778 31.3333C775.847 20.5114 793.636 5.65696 815.222 2.33333C832.482 -0.324167 849.692 5.84067 864.611 13.7778C875.809 19.7351 882.577 27.2076 892 35" stroke="#1B1C21" stroke-width="3" stroke-linecap="round"/>
</svg>
